<?xml version="1.0" encoding="UTF-8" standalone="no"?>
<!-- Created with Inkscape (http://www.inkscape.org/) -->

<svg
   width="512"
   height="512"
   viewBox="0 0 512 512"
   version="1.1"
   id="svg5"
   xml:space="preserve"
   inkscape:export-filename="icon.png"
   inkscape:export-xdpi="96"
   inkscape:export-ydpi="96"
   sodipodi:docname="icon.svg"
   inkscape:version="1.2.2 (b0a8486541, 2022-12-01)"
   xmlns:inkscape="http://www.inkscape.org/namespaces/inkscape"
   xmlns:sodipodi="http://sodipodi.sourceforge.net/DTD/sodipodi-0.dtd"
   xmlns="http://www.w3.org/2000/svg"
   xmlns:svg="http://www.w3.org/2000/svg"><sodipodi:namedview
     id="namedview7"
     pagecolor="#505050"
     bordercolor="#eeeeee"
     borderopacity="1"
     inkscape:showpageshadow="0"
     inkscape:pageopacity="0"
     inkscape:pagecheckerboard="0"
     inkscape:deskcolor="#505050"
     inkscape:document-units="px"
     showgrid="false"
     inkscape:lockguides="false"
     inkscape:zoom="1.1614781"
     inkscape:cx="266.04032"
     inkscape:cy="266.90129"
     inkscape:window-width="1920"
     inkscape:window-height="1016"
     inkscape:window-x="0"
     inkscape:window-y="33"
     inkscape:window-maximized="1"
     inkscape:current-layer="layer1"><sodipodi:guide
       position="0,512"
       orientation="0,512"
       id="guide310"
       inkscape:locked="false" /><sodipodi:guide
       position="512,512"
       orientation="512,0"
       id="guide312"
       inkscape:locked="false" /><sodipodi:guide
       position="512,0"
       orientation="0,-512"
       id="guide314"
       inkscape:locked="false" /><sodipodi:guide
       position="0,0"
       orientation="-512,0"
       id="guide316"
       inkscape:locked="false" /></sodipodi:namedview><defs
     id="defs2" /><g
     inkscape:label="Layer 1"
     inkscape:groupmode="layer"
     id="layer1"><rect
       style="fill:#010101;stroke-width:0.628081"
       id="rect177"
       width="512"
       height="512"
       x="-4.2632564e-14"
       y="1.4210855e-14"
       rx="0.60753995"
       inkscape:label="Back" /><path
       style="fill:#ffffff;stroke-width:0.713631"
       d="m 240.36867,423.1424 c -0.56538,-0.38241 -1.87962,-0.522 -2.92055,-0.31021 -1.04092,0.21179 -2.54978,0.0273 -3.35303,-0.41008 -0.80322,-0.43732 -4.26479,-0.84342 -7.69231,-0.90243 -3.42756,-0.059 -6.67861,-0.46255 -7.22458,-0.89676 -0.88671,-0.7052 -4.86828,-1.81779 -11.03527,-3.08361 -1.16742,-0.23963 -2.75934,-0.83563 -3.53762,-1.32446 -0.77829,-0.48882 -2.29062,-1.09542 -3.36076,-1.34801 -1.07013,-0.25258 -1.94569,-0.77698 -1.94569,-1.16532 0,-0.38834 -1.00969,-0.70607 -2.24375,-0.70607 -1.23405,0 -2.77066,-0.48513 -3.41468,-1.07805 -0.64402,-0.59294 -2.72302,-1.37307 -4.62,-1.7336 -2.54347,-0.48341 -3.92255,-1.24147 -5.25249,-2.88726 -1.3339,-1.65066 -2.39131,-2.23005 -4.06116,-2.22525 -1.24173,0.004 -2.45447,-0.31743 -2.69498,-0.71331 -0.2405,-0.39589 -1.08718,-0.71978 -1.88152,-0.71978 -0.79433,0 -2.92466,-1.48622 -4.73404,-3.3027 -3.20473,-3.21731 -6.86763,-5.33478 -9.22833,-5.33478 -0.64173,0 -2.75196,-1.77878 -4.68938,-3.95286 -1.93742,-2.17407 -3.88419,-3.95556 -4.32613,-3.95884 -1.77986,-0.0132 -4.87976,-2.23881 -5.23982,-3.76195 -0.21074,-0.89144 -1.32509,-2.11151 -2.47634,-2.7113 -1.15125,-0.59978 -2.25239,-1.27685 -2.44695,-1.50461 -0.19457,-0.22775 -1.38852,-1.02638 -2.65323,-1.77471 -1.2647,-0.74834 -2.29946,-1.57924 -2.29946,-1.84643 0,-0.2672 -1.90777,-2.54567 -4.23948,-5.06327 -2.33172,-2.51761 -4.24204,-4.80816 -4.24516,-5.0901 -0.004,-0.28196 -1.75678,-2.50917 -3.89705,-4.94939 -2.14026,-2.44021 -3.8914,-5.05462 -3.8914,-5.8098 0,-0.8062 -1.0223,-1.98667 -2.47633,-2.85944 -1.70939,-1.02604 -2.47634,-2.00853 -2.47634,-3.1723 0,-0.92723 -0.31839,-1.88607 -0.70753,-2.13074 -0.38914,-0.24467 -0.70752,-1.01882 -0.70752,-1.72032 0,-0.70151 -0.77498,-1.69742 -1.72216,-2.21312 -2.29239,-1.24811 -3.50785,-4.41396 -2.91953,-7.60432 0.39406,-2.13698 0.20119,-2.7948 -1.15723,-3.94687 -0.89655,-0.76038 -1.97258,-1.39329 -2.39117,-1.40646 -1.95781,-0.0616 -3.83785,-3.39503 -3.83785,-6.80474 0,-2.82158 -0.32176,-3.70644 -1.76881,-4.86443 -1.415537,-1.13274 -1.768818,-2.05823 -1.768818,-4.63368 0,-2.43539 -0.430248,-3.69027 -1.768815,-5.15887 -1.381643,-1.51588 -1.768814,-2.70517 -1.768814,-5.43343 0,-2.40286 -0.441556,-4.06383 -1.415048,-5.32288 -0.778278,-1.00658 -1.415048,-2.41515 -1.415048,-3.13017 0,-0.71501 -0.319252,-1.50074 -0.70944,-1.74608 -0.468106,-0.29432 -0.445812,-0.94719 0.06558,-1.91922 0.560459,-1.06539 0.560993,-1.69088 0.0017,-2.25964 -0.425187,-0.43256 -0.77307,-2.15818 -0.77307,-3.83471 0,-1.67653 -0.342868,-3.96006 -0.761925,-5.07452 -0.419064,-1.11445 -0.789791,-3.80774 -0.823846,-5.98511 -0.03401,-2.17736 -0.324963,-4.31225 -0.646466,-4.74422 -0.321504,-0.43196 -0.443267,-2.86124 -0.270586,-5.3984 0.172679,-2.53718 0.303645,-4.93695 0.291032,-5.33284 -0.01266,-0.39589 -0.181021,-3.58031 -0.374238,-7.07648 -0.193215,-3.49618 -0.107027,-6.89718 0.19154,-7.55779 0.549718,-1.21629 1.116103,-8.3396 1.051635,-13.22625 -0.02752,-2.09031 0.503329,-3.24882 2.452162,-5.35099 2.363253,-2.54922 2.455112,-2.83687 1.841048,-5.76591 -0.611048,-2.91467 -0.391971,-5.0282 1.155548,-11.14805 0.675639,-2.67188 2.889248,-6.31451 3.862123,-6.35534 0.296448,-0.0124 0.335351,-1.31823 0.08645,-2.90177 -0.303243,-1.92925 -0.189287,-2.87914 0.345401,-2.87914 0.438877,0 0.797955,-0.62871 0.797955,-1.39711 0,-0.76841 0.31839,-1.59728 0.70752,-1.84195 0.38914,-0.24468 0.70753,-0.98794 0.70753,-1.65168 0,-2.03591 3.77843,-9.04455 5.83708,-10.82727 1.32398,-1.14651 1.94571,-2.37648 1.94571,-3.84918 0,-2.50316 2.01205,-6.34521 3.32293,-6.34521 0.49238,0 1.10895,-0.89075 1.37011,-1.97943 0.26116,-1.08868 1.20038,-2.86841 2.08716,-3.95495 0.88678,-1.08656 1.80592,-2.59612 2.04255,-3.3546 0.23665,-0.7585 1.21214,-1.90027 2.16778,-2.53729 0.95564,-0.63701 2.20138,-2.28758 2.76829,-3.66792 0.6049,-1.47282 1.78982,-2.8033 2.86801,-3.22032 1.05673,-0.40874 2.25943,-1.73857 2.83099,-3.1302 0.97913,-2.38402 16.12387,-18.46348 17.39017,-18.46348 0.35796,0 0.65084,-0.25407 0.65084,-0.56461 0,-0.89882 3.96129,-3.03434 5.6286,-3.03434 1.04686,0 1.81941,-0.73173 2.48594,-2.35465 0.65729,-1.60038 1.8617,-2.75621 3.75985,-3.60818 1.53604,-0.68944 3.788,-2.22109 5.00435,-3.40366 1.21638,-1.18257 2.6706,-2.15012 3.23162,-2.15012 0.56103,0 1.22205,-0.64746 1.46893,-1.43879 0.31353,-1.00494 1.31714,-1.58004 3.32829,-1.90721 1.7147,-0.27894 3.46431,-1.15274 4.32532,-2.16016 0.79524,-0.93045 2.14545,-1.69173 3.00049,-1.69173 0.85501,0 1.95092,-0.48586 2.43537,-1.07968 0.48444,-0.59384 1.96615,-1.07969 3.2927,-1.07969 1.49459,0 2.5673,-0.41193 2.82044,-1.08307 0.43257,-1.14677 3.13451,-2.5689 7.49688,-3.945886 1.45385,-0.45891 2.82578,-1.13465 3.04874,-1.50165 0.22294,-0.367 0.89565,-0.66728 1.49486,-0.66728 0.59922,0 2.19094,-0.53173 3.53716,-1.18163 1.83423,-0.88549 2.65012,-0.97569 3.25542,-0.3599 1.52573,1.55219 4.96634,0.95461 6.61507,-1.14893 1.42409,-1.81693 2.00571,-1.99071 7.4556,-2.22759 3.25106,-0.14132 6.21348,-0.55014 6.58316,-0.90849 0.36968,-0.35836 1.34076,-0.65156 2.15795,-0.65156 0.81721,0 1.88348,-0.40456 2.36953,-0.89903 0.60156,-0.61199 2.82189,-0.83829 6.95434,-0.70878 3.47166,0.10879 6.45198,-0.13173 6.96138,-0.56183 0.62433,-0.52712 1.45916,-0.48859 2.79118,0.12884 1.47711,0.68468 2.20181,0.68941 3.25345,0.0213 1.60734,-1.0212 21.23893,-1.21214 22.27961,-0.21669 1.06501,1.0187 7.78325,2.23622 12.33939,2.23622 2.29272,0 4.36535,0.32391 4.60585,0.71979 0.24051,0.39589 1.4899,0.71979 2.77644,0.71979 1.28655,0 3.14871,0.64781 4.13811,1.43958 1.25777,1.00649 2.87029,1.43958 5.36012,1.43958 1.95864,0 3.75792,0.3239 3.99843,0.71978 0.24049,0.39589 1.3307,0.71979 2.42268,0.71979 1.09197,0 2.79492,0.64781 3.78434,1.43958 0.98941,0.79177 2.32716,1.43958 2.97273,1.43958 0.64559,0 2.1873,0.782476 3.42603,1.738856 1.23873,0.95637 3.5258,1.96896 5.08237,2.25021 4.31911,0.78039 8.44812,2.91072 9.49366,4.89818 0.96746,1.83907 2.62609,2.59987 5.71813,2.62288 0.97615,0.007 2.78207,0.97934 4.02989,2.1692 1.29176,1.23173 3.03583,2.15602 4.06829,2.15602 0.99393,0 1.80718,0.31346 1.80718,0.69656 0,0.38311 1.98991,2.03722 4.42203,3.67581 2.43212,1.6386 4.67665,3.43053 4.98784,3.98208 0.3112,0.55154 0.97822,1.00282 1.48226,1.00282 0.50406,0 1.49275,0.6478 2.19709,1.43957 0.70433,0.79178 1.59189,1.43957 1.97236,1.43957 0.80532,0 3.33409,2.81319 3.33409,3.70909 0,0.33529 0.34113,0.60964 0.75805,0.60964 0.96794,0 2.77957,1.82653 2.77957,2.80243 0,0.41023 0.71637,1.13547 1.59192,1.61164 1.90882,1.0381 7.60591,6.88753 7.60591,7.80928 0,0.3583 0.94607,1.22003 2.10239,1.9149 1.15631,0.69489 2.42156,2.19488 2.81165,3.33333 0.3901,1.13843 1.61782,2.93651 2.72825,3.99573 1.11044,1.05921 2.94141,3.3834 4.06883,5.16488 1.12743,1.78149 3.09269,4.512 4.36722,6.06782 1.41292,1.72475 2.31733,3.62098 2.31733,4.85857 0,1.11641 0.23879,2.03021 0.53065,2.03069 0.29185,4.8e-4 1.4062,0.76697 2.47633,1.70327 1.47952,1.29451 1.9457,2.34946 1.9457,4.40302 0,2.06337 0.48355,3.14759 2.0493,4.59488 1.12712,1.04184 2.42536,3.1089 2.88497,4.59347 0.45963,1.48456 1.12561,2.6992 1.47996,2.6992 0.35437,0 0.84908,1.3028 1.09936,2.89511 0.2503,1.59232 0.73163,3.069 1.06965,3.28153 0.33803,0.21253 0.6146,1.45078 0.6146,2.75165 0,1.45109 0.54689,2.86874 1.41505,3.66803 0.95938,0.88327 1.41504,2.21692 1.41504,4.14155 0,2.53223 0.94958,5.60308 2.88959,9.34472 0.35642,0.68742 0.64804,2.4851 0.64804,3.99482 0,1.50973 0.28579,3.05268 0.63506,3.42876 0.34929,0.3761 0.81074,2.14138 1.02547,3.92287 0.21474,1.78146 0.6157,4.37269 0.89105,5.75829 0.74735,3.76082 0.4447,10.93039 -0.5406,12.80607 -0.71291,1.35713 -0.6604,2.00411 0.29638,3.6519 0.85437,1.47139 1.19142,3.99318 1.27066,9.50738 0.13629,9.48282 -0.55269,18.75087 -1.46274,19.67671 -0.38513,0.39179 -0.70731,3.31978 -0.71596,6.50664 -0.0126,4.64071 -0.29119,6.15257 -1.39932,7.59379 -0.79276,1.03106 -1.3903,2.93394 -1.39931,4.45619 -0.008,1.4612 -0.33412,2.85691 -0.72327,3.10158 -0.38914,0.24466 -0.70752,1.67768 -0.70752,3.18446 0,1.64972 -0.56296,3.46768 -1.41505,4.56972 -0.77829,1.00659 -1.41505,2.6196 -1.41505,3.58447 0,0.96488 -0.63678,2.34059 -1.41506,3.05712 -0.87281,0.80359 -1.41504,2.21694 -1.41504,3.68834 0,2.71123 -2.24675,7.64939 -4.73866,10.41515 -0.92521,1.02687 -1.88357,3.12949 -2.1297,4.67247 -0.48318,3.02907 -1.61134,4.61719 -3.27996,4.61719 -1.83236,0 -6.12477,6.72177 -6.12477,9.59115 0,1.40817 -0.27827,2.73526 -0.61838,2.94911 -0.34012,0.21384 -1.45035,2.17639 -2.46718,4.36121 -1.01684,2.18482 -2.18193,3.9724 -2.58907,3.9724 -0.40716,0 -1.85463,1.13367 -3.21661,2.51927 -1.36198,1.38559 -3.0229,2.52254 -3.69092,2.52656 -0.79021,0.006 -1.82966,1.41421 -2.97494,4.03401 -1.22721,2.80719 -2.80874,4.87594 -5.22198,6.8307 -1.90391,1.54218 -3.82104,2.80397 -4.26031,2.80397 -0.43927,0 -1.16529,0.59721 -1.61336,1.32715 -0.44808,0.72991 -1.97396,1.88677 -3.39083,2.57077 -1.51815,0.7329 -2.8576,2.03541 -3.2615,3.17154 -1.5312,4.30725 -2.26712,5.16695 -4.42289,5.16695 -1.54428,0 -2.8368,0.77451 -4.80479,2.87916 -1.48071,1.58354 -3.0006,2.87916 -3.37754,2.87916 -0.37692,0 -1.10604,0.40908 -1.62026,0.90906 -2.00595,1.95042 -6.72426,4.79261 -14.20107,8.55433 -1.8484,0.92997 -3.36073,1.93435 -3.36073,2.23194 0,0.29761 -0.55718,0.55137 -1.23818,0.56397 -0.68098,0.0126 -1.85619,0.49845 -2.61156,1.07968 -0.75537,0.58124 -1.91034,1.05679 -2.56659,1.05679 -0.65625,0 -1.58954,0.48586 -2.07398,1.07968 -0.48444,0.59383 -1.71738,1.08168 -2.73985,1.08412 -1.02249,0.003 -2.77103,0.48831 -3.88563,1.07969 -1.11462,0.59138 -2.49821,1.07524 -3.07466,1.07524 -0.57643,0 -1.96437,0.66379 -3.08431,1.47507 -1.64458,1.19135 -2.3197,1.32073 -3.50995,0.6727 -1.18414,-0.64473 -1.96748,-0.506 -3.98664,0.70599 -1.38212,0.82958 -3.69956,1.62465 -5.14988,1.76676 -1.45033,0.14211 -3.70741,0.82152 -5.01573,1.50981 -1.81606,0.95541 -4.14494,1.25276 -9.84506,1.25703 -4.41383,0.004 -7.87223,0.33351 -8.45924,0.80765 -0.54614,0.44112 -4.04839,0.88057 -7.78278,0.97653 -5.2717,0.13547 -7.29758,-0.0988 -9.06079,-1.04766 -1.99342,-1.07277 -2.72846,-1.11029 -6.01397,-0.30702 -5.69118,1.39143 -8.59047,1.65696 -9.72364,0.89052 z m -1.80214,-36.05935 c 0.58728,-0.9667 4.12166,-0.91741 5.09324,0.0711 0.53354,0.5428 3.7401,0.64732 10.22375,0.3333 5.19554,-0.25163 12.07579,-0.57011 15.28949,-0.70775 3.24636,-0.139 6.31284,-0.64684 6.90013,-1.14269 0.60097,-0.5074 1.92172,-0.71655 3.06106,-0.48472 1.1022,0.22426 2.80571,-0.0155 3.78559,-0.53258 0.97987,-0.51718 3.34074,-1.16825 5.24639,-1.44683 4.14252,-0.60562 10.0568,-2.29373 11.16168,-3.1859 0.85071,-0.68693 3.93597,-1.40095 8.71647,-2.01721 2.02764,-0.26139 3.30143,-0.89692 4.01346,-2.00246 0.5737,-0.89074 2.1025,-2.05571 3.39736,-2.58883 1.29484,-0.53311 2.51345,-1.17668 2.70802,-1.43015 0.47548,-0.61949 9.73592,-5.0193 10.56424,-5.0193 0.3603,0 1.0835,-0.40489 1.60708,-0.89974 4.54026,-4.29104 9.85561,-8.45752 10.7896,-8.45752 0.62666,0 1.32262,-0.48585 1.54662,-1.07968 0.22399,-0.59383 1.1083,-1.0797 1.96514,-1.0797 2.13381,0 3.80581,-1.45338 4.07775,-3.54455 0.13649,-1.04959 1.07289,-2.22029 2.34952,-2.9374 1.16741,-0.65577 2.23504,-1.78326 2.3725,-2.50553 0.13747,-0.72227 1.74396,-2.80145 3.56999,-4.62039 1.82604,-1.81894 4.57905,-5.33565 6.11781,-7.81492 2.24311,-3.61416 3.2994,-4.6475 5.32832,-5.21262 1.69595,-0.47238 2.82596,-1.35962 3.42619,-2.69011 0.49259,-1.0919 1.34374,-2.90227 1.89144,-4.02303 0.54773,-1.12076 0.99585,-3.47225 0.99585,-5.22552 0,-2.29703 0.3954,-3.53217 1.41506,-4.42037 0.77827,-0.67792 1.41504,-1.90188 1.41504,-2.7199 0,-1.43846 1.99239,-5.99033 3.39786,-7.7629 0.37802,-0.47675 0.91849,-2.32438 1.20107,-4.10586 0.28255,-1.78147 0.79376,-3.59322 1.13598,-4.0261 1.02604,-1.2978 3.60623,-11.92118 3.77691,-15.5506 0.0875,-1.85979 0.56892,-3.8839 1.0699,-4.49801 0.73267,-0.89812 0.73877,-1.53937 0.0311,-3.27726 -0.59959,-1.47265 -0.65208,-2.44695 -0.16479,-3.05976 0.91225,-1.14723 0.55605,-22.02662 -0.45127,-26.45158 -0.40554,-1.78148 -0.75123,-5.5477 -0.76817,-8.36939 -0.0219,-3.65208 -0.33663,-5.38853 -1.09211,-6.02639 -0.58372,-0.49284 -1.06325,-1.58518 -1.06565,-2.42744 -0.003,-0.84227 -0.44759,-2.39567 -0.98933,-3.45199 -0.54173,-1.05632 -1.20143,-3.22404 -1.466,-4.81713 -0.26457,-1.59311 -0.93372,-3.27877 -1.487,-3.74591 -0.5533,-0.46714 -1.00599,-1.71951 -1.00599,-2.78303 0,-1.06351 -0.46746,-2.5624 -1.03879,-3.33085 -0.57133,-0.76848 -1.0489,-1.96405 -1.06127,-2.65684 -0.0124,-0.6928 -0.34088,-1.25963 -0.73001,-1.25963 -0.38914,0 -0.70752,-0.60412 -0.70752,-1.34251 0,-0.73838 -0.63679,-2.16606 -1.41506,-3.17263 -0.77827,-1.00657 -1.41506,-2.16079 -1.41506,-2.56492 0,-0.40413 -0.41574,-1.16282 -0.92387,-1.68594 -0.50815,-0.52313 -1.70209,-2.40872 -2.65321,-4.1902 -0.95115,-1.78148 -2.12031,-3.65992 -2.59816,-4.17432 -0.47783,-0.51439 -1.14622,-1.43961 -1.48533,-2.05604 -0.5027,-0.91389 -1.46804,-0.27611 -5.22883,3.45452 -2.53676,2.51643 -4.82972,5.28752 -5.09546,6.15802 -0.26575,0.87048 -1.10367,1.78306 -1.86203,2.02793 -0.75839,0.24485 -1.37888,0.74479 -1.37888,1.11093 0,0.36617 -0.95516,1.53154 -2.12256,2.58975 -1.16743,1.05821 -2.12259,2.19361 -2.12259,2.52315 0,0.96054 -5.0214,7.80036 -5.72658,7.80036 -0.35262,0 -0.64114,0.59135 -0.64114,1.31411 0,0.72275 -0.79597,2.07483 -1.76881,3.00462 -0.97286,0.92979 -1.76882,2.21832 -1.76882,2.86344 0,0.64508 -1.11435,2.27169 -2.47635,3.61465 -1.36199,1.34298 -2.47633,2.84799 -2.47633,3.3445 0,0.49649 -0.44357,1.16174 -0.98574,1.47833 -0.54214,0.31658 -2.31032,2.61039 -3.92926,5.09733 -1.61896,2.48693 -4.59803,6.24682 -6.62018,8.35525 -2.02215,2.10846 -4.28033,5.00642 -5.01821,6.43994 -0.73786,1.43352 -1.86834,2.7765 -2.51213,2.98437 -0.6438,0.20787 -1.55498,1.45948 -2.02482,2.78136 -0.47747,1.34327 -1.64959,2.77203 -2.65733,3.23916 -0.99167,0.45967 -1.64042,1.10345 -1.44167,1.43061 0.19876,0.32718 -1.05349,2.51214 -2.78277,4.85551 -1.72928,2.34337 -3.1475,4.50359 -3.15159,4.8005 -0.005,0.29692 -0.4484,0.53985 -0.98735,0.53985 -1.04723,0 -3.26524,2.98719 -3.26524,4.39761 0,0.46713 -0.6466,1.53121 -1.43691,2.36463 -2.62162,2.7647 -5.63835,6.73416 -5.63835,7.41906 0,0.37132 -1.04056,1.94809 -2.31237,3.50391 -1.2718,1.55582 -2.75836,3.71952 -3.30343,4.8082 -0.54506,1.08868 -1.4248,1.97942 -1.95498,1.97942 -0.53016,0 -1.14722,0.56682 -1.37124,1.25962 -1.09259,3.37893 -2.59612,6.06439 -3.83657,6.85249 -0.75455,0.4794 -1.37192,1.38044 -1.37192,2.00235 0,0.62189 -0.63676,1.82605 -1.41505,2.67591 -0.77827,0.84987 -1.41503,1.70446 -1.41503,1.89912 0,0.19464 -1.03478,1.86082 -2.29948,3.70262 -2.55561,3.72177 -2.79295,4.12565 -4.13837,7.04229 -0.51789,1.1227 -1.66913,2.83989 -2.55834,3.81598 -0.88919,0.97609 -1.61671,2.2255 -1.61671,2.77649 0,0.55098 -0.58833,1.42502 -1.3074,1.94232 -0.71907,0.51732 -1.52219,2.11576 -1.78471,3.55211 -0.26254,1.43636 -1.18652,3.39554 -2.05336,4.35372 -0.86681,0.95821 -2.50058,3.50791 -3.63059,5.66602 -1.13,2.15812 -2.64233,4.5033 -3.36073,5.21152 -0.71841,0.70822 -1.3062,1.76424 -1.3062,2.3467 0,0.58247 -1.03914,2.59426 -2.30919,4.47063 -1.27006,1.8764 -3.24194,5.19309 -4.38194,7.37046 -1.14003,2.17736 -2.80717,4.54918 -3.70478,5.27072 -0.89761,0.72153 -1.63202,1.94634 -1.63202,2.72178 0,0.77548 -0.47909,1.59697 -1.06462,1.82556 -0.58554,0.22858 -1.54082,1.43647 -2.1228,2.68422 -0.58201,1.24773 -1.85405,3.14179 -2.82678,4.20901 -0.97273,1.06722 -1.76858,2.10025 -1.76858,2.29561 0,0.19538 -0.95516,1.79504 -2.12258,3.5548 -2.36864,3.57049 -2.63645,4.79028 -1.05169,4.79028 0.58899,0 1.62374,0.29728 2.29946,0.6606 2.79867,1.50488 7.65377,3.58883 8.43894,3.62225 0.46346,0.0197 1.03945,-0.28802 1.27993,-0.68392 z m -32.45362,-13.44344 c -0.24947,-1.85151 -0.90316,-3.87591 -1.45265,-4.49867 -0.54949,-0.62276 -1.36259,-3.18334 -1.80688,-5.69017 -0.44428,-2.50683 -1.47583,-5.86177 -2.29235,-7.45542 -0.8165,-1.59365 -1.63485,-4.48891 -1.81856,-6.43392 -0.18369,-1.945 -0.61125,-3.71068 -0.9501,-3.92374 -0.33884,-0.21304 -0.61609,-0.99496 -0.61609,-1.73759 0,-0.74263 -0.36888,-2.26207 -0.81973,-3.37653 -0.45087,-1.11445 -0.87934,-2.99798 -0.9522,-4.18564 -0.0729,-1.18765 -0.4741,-3.13107 -0.8917,-4.31872 -0.41758,-1.18766 -1.12147,-3.77111 -1.56418,-5.74102 -0.44272,-1.9699 -1.10335,-3.76925 -1.46806,-3.99855 -0.3647,-0.22932 -0.94509,-1.95257 -1.28976,-3.82944 -0.34467,-1.87689 -0.80023,-3.5891 -1.01235,-3.80489 -0.84719,-0.86188 -3.21686,0.62121 -3.97749,2.48936 -0.44398,1.09047 -1.61691,2.60123 -2.6065,3.35727 -0.98961,0.75602 -2.26071,2.28236 -2.82465,3.39183 -0.56396,1.10948 -1.50477,2.01722 -2.0907,2.01722 -0.58593,0 -1.24817,0.48474 -1.47164,1.07719 -0.62997,1.67014 -11.1465,12.5988 -12.12367,12.5988 -0.47773,0 -0.8686,0.25408 -0.8686,0.56459 0,0.31055 -0.95516,1.13861 -2.12256,1.84018 -1.16744,0.70156 -2.1226,1.67877 -2.1226,2.17158 0,0.49281 1.41251,2.26555 3.13889,3.93941 1.87957,1.82238 3.22791,3.81875 3.36075,4.97596 0.17731,1.54443 0.69665,2.03055 2.58597,2.42053 1.30025,0.26838 3.38493,1.49456 4.63259,2.72481 1.24768,1.23026 2.63195,2.23682 3.0762,2.23682 1.09419,0 7.5578,5.71978 7.844,6.94134 0.12591,0.53732 1.1298,0.97632 2.2326,0.97632 2.14329,0 6.9552,2.33349 9.20076,4.4618 0.75236,0.71309 2.25682,1.29823 3.34323,1.30032 1.08639,0.003 2.93043,0.62622 4.09784,1.38697 3.51876,2.29298 4.14827,1.96731 3.63019,-1.878 z m 11.65789,0.44439 c 0.29212,-0.57025 1.23125,-2.60148 2.08697,-4.51383 0.8557,-1.91235 1.99258,-3.64751 2.52638,-3.85591 0.53383,-0.2084 0.97058,-0.87285 0.97058,-1.47655 0,-2.17573 4.63457,-8.82538 6.15098,-8.82538 0.4861,0 1.13171,-0.94738 1.4347,-2.10531 0.54097,-2.06752 3.2439,-5.98517 6.38796,-9.25879 0.87555,-0.91164 1.59192,-1.84296 1.59192,-2.06963 0,-0.22665 0.95517,-1.51883 2.12258,-2.87147 1.16742,-1.35267 2.12258,-2.77202 2.12258,-3.15414 0,-0.3821 0.44044,-0.69473 0.97877,-0.69473 0.53831,0 1.15547,-0.56685 1.37143,-1.25963 0.42471,-1.36241 2.69318,-5.35274 3.37586,-5.93826 0.50163,-0.43025 4.1793,-7.85976 4.1793,-8.44291 0,-0.2238 -2.68726,-0.19681 -5.97167,0.0601 -3.64507,0.28504 -6.13824,0.1928 -6.39918,-0.23673 -0.23513,-0.38705 -1.77955,-0.64386 -3.43203,-0.57069 -3.16574,0.14016 -8.65942,-2.02212 -10.3251,-4.06392 -0.51219,-0.62787 -1.3878,-1.14157 -1.9458,-1.14157 -1.11954,0 -5.1755,-4.20562 -5.18746,-5.37888 -0.005,-0.40663 -1.11849,-1.8375 -2.47634,-3.17972 -1.35783,-1.34223 -2.46881,-2.7743 -2.46881,-3.18237 0,-0.40808 -0.43154,-1.25334 -0.95898,-1.87834 -0.52742,-0.62499 -1.54078,-3.56564 -2.2519,-6.53477 -0.71113,-2.96914 -1.75957,-5.79317 -2.32987,-6.27566 -0.89059,-0.75343 -0.8973,-1.04933 -0.0476,-2.09647 0.76752,-0.94581 0.79107,-1.28715 0.10499,-1.52205 -0.48643,-0.16656 -0.8844,-1.24756 -0.8844,-2.40221 0,-1.15467 -0.31838,-2.09939 -0.70753,-2.09939 -0.38913,0 -0.70752,0.28965 -0.70752,0.64367 0,0.35401 -0.9139,1.63895 -2.0309,2.85543 -1.77769,1.93602 -4.33684,6.39774 -4.33684,7.56108 0,0.22311 -0.66573,1.14587 -1.47941,2.05057 -2.73098,3.03653 -5.59585,7.23281 -5.59585,8.19645 0,0.52536 0.75274,2.34326 1.67273,4.03982 0.92001,1.69655 1.90026,4.35712 2.17834,5.91238 0.27809,1.55525 1.15804,4.23977 1.95546,5.96561 0.79741,1.72583 1.49846,4.50216 1.55789,6.16962 0.0594,1.66745 0.54685,3.8354 1.08315,4.81762 0.5363,0.98223 1.07335,2.90004 1.19346,4.2618 0.12011,1.36178 0.56305,2.69265 0.98433,2.95752 0.42126,0.26489 0.80415,1.26221 0.85083,2.2163 0.0938,1.9164 2.01123,9.85583 3.70602,15.34514 0.59998,1.94338 1.09089,4.38885 1.09089,5.43441 0,1.04556 0.37183,2.27929 0.82631,2.74164 0.88849,0.9039 2.58146,5.15773 3.21764,8.08474 0.2151,0.98973 0.69416,2.19018 1.06459,2.6677 0.37043,0.47751 0.45867,1.22181 0.19613,1.65398 -0.66998,1.10283 0.18555,3.05384 1.18977,2.71329 0.45842,-0.15545 1.07249,-0.74922 1.3646,-1.31949 z m -54.73263,-47.04811 c 2.82126,-3.02642 5.12957,-5.97742 5.12957,-6.55778 0,-0.58036 0.32837,-1.0552 0.72972,-1.0552 0.40136,0 0.93703,-0.56685 1.1904,-1.25965 0.52487,-1.43522 2.79381,-4.84348 4.62449,-6.9466 0.68099,-0.78235 1.23817,-1.80999 1.23817,-2.28363 0,-0.47366 0.76811,-1.37321 1.70693,-1.999 0.93881,-0.62579 2.27259,-2.44215 2.96398,-4.03635 0.69137,-1.59419 1.81144,-3.07754 2.48903,-3.29634 0.67761,-0.21878 1.44337,-1.37671 1.70167,-2.57316 0.25831,-1.19645 0.90939,-2.34704 1.44684,-2.55684 0.53746,-0.20983 1.40402,-1.24064 1.9257,-2.29069 2.08114,-4.18896 3.09984,-5.62781 5.98463,-8.45277 2.10835,-2.06463 3.00698,-3.53675 3.00698,-4.92596 0,-1.3468 0.434,-2.0968 1.35513,-2.34186 0.74532,-0.19828 1.56234,-1.22064 1.8156,-2.27191 0.25325,-1.0513 1.69789,-3.20704 3.21029,-4.79058 1.5124,-1.58353 3.2241,-4.03861 3.80374,-5.45572 0.57964,-1.4171 1.54987,-2.99532 2.15606,-3.50712 0.6062,-0.51181 1.10218,-1.30804 1.10218,-1.76937 0,-0.46133 0.9422,-1.96022 2.09382,-3.33085 1.15161,-1.37065 2.10676,-2.88027 2.12257,-3.35474 0.0157,-0.47445 0.81978,-1.77007 1.78659,-2.87915 3.08745,-3.5418 3.26588,-3.80844 4.01891,-6.00602 0.4069,-1.18749 1.34311,-2.48753 2.08046,-2.889 0.73734,-0.40144 1.34063,-1.19467 1.34063,-1.76273 0,-0.56804 0.95517,-1.75121 2.12258,-2.62929 1.16741,-0.87808 2.12257,-2.05052 2.12257,-2.60546 0,-0.55493 0.77363,-1.87062 1.71915,-2.92374 3.74609,-4.17239 8.8815,-10.58171 8.88744,-11.09209 0.004,-0.29691 0.47654,-0.53982 1.05128,-0.53982 0.57474,0 1.58204,-0.83387 2.23844,-1.85303 0.98479,-1.52903 10.36996,-11.35273 13.82184,-14.46765 0.88008,-0.79419 4.18989,-4.60483 5.99091,-6.89743 0.44501,-0.56648 1.32875,-2.05225 1.96387,-3.30172 0.63511,-1.24946 1.61987,-2.27174 2.18838,-2.27174 0.56849,0 1.48795,-1.10622 2.04326,-2.45828 0.55528,-1.35206 1.99231,-3.34902 3.19335,-4.43771 1.20104,-1.08869 2.18374,-2.53904 2.18374,-3.22302 0,-0.68398 0.46397,-1.42472 1.03106,-1.64611 0.56709,-0.22138 1.84463,-1.71361 2.83897,-3.31605 0.99436,-1.60245 2.22022,-2.91355 2.72416,-2.91355 0.50394,0 1.48707,-1.31623 2.18476,-2.92496 1.74287,-4.0188 4.75673,-8.58903 5.6741,-8.60425 0.8187,-0.0136 4.58667,-5.86571 6.59567,-10.24381 0.68108,-1.48423 1.76384,-2.87244 2.40616,-3.08489 0.6423,-0.21246 1.37932,-1.24356 1.63781,-2.29133 0.2585,-1.04777 1.72289,-3.17965 3.25421,-4.73751 3.09839,-3.15209 3.35798,-4.10387 1.54605,-5.66861 -1.5507,-1.33917 -7.16284,-3.47259 -9.13487,-3.47259 -0.8149,0 -1.878,-0.48587 -2.36242,-1.0797 -0.48444,-0.59381 -1.61899,-1.07967 -2.52123,-1.07967 -0.90223,0 -1.8484,-0.34237 -2.1026,-0.76077 -0.25419,-0.41843 -1.62612,-0.68564 -3.04875,-0.59381 -5.26309,0.33974 -9.23196,-0.11042 -10.26826,-1.16469 -1.20054,-1.22136 -3.28494,-1.44972 -3.28494,-0.3599 0,0.39589 -1.75112,0.7198 -3.89139,0.7198 -2.14026,0 -3.89139,-0.31774 -3.89139,-0.70608 0,-1.36007 -3.49614,-1.64651 -5.31319,-0.4353 -1.55282,1.03508 -1.99918,1.05401 -3.70934,0.1573 -1.16448,-0.61057 -4.293,-1.05321 -7.80132,-1.10374 -4.96403,-0.0715 -6.17098,0.15162 -7.91477,1.46321 -1.59619,1.20056 -2.64972,1.44981 -4.69842,1.11159 -1.45248,-0.23979 -2.88473,-0.83737 -3.18275,-1.32795 -0.64717,-1.06528 -3.03942,0.003 -7.13976,3.18751 -1.80864,1.4048 -3.77123,2.15633 -6.36773,2.4384 -3.71601,0.40367 -6.97797,1.61099 -13.47657,4.98796 -1.84556,0.95905 -3.96508,1.74373 -4.71004,1.74373 -0.74496,0 -3.53317,1.45691 -6.19603,3.2376 -2.66285,1.78067 -5.1902,3.23824 -5.61631,3.23903 -0.42612,8e-4 -1.37481,0.67601 -2.10822,1.50046 -1.46864,1.65097 -5.41876,3.53952 -7.40325,3.53952 -0.7285,0 -1.66767,0.91547 -2.20418,2.14852 -0.51756,1.1895 -1.78282,2.44929 -2.83459,2.82229 -1.04487,0.37056 -2.25025,1.33999 -2.67863,2.15429 -1.26342,2.40165 -4.02969,4.89046 -5.9928,5.39171 -1.00554,0.25674 -1.82826,0.8077 -1.82826,1.22434 0,0.41662 -1.42224,2.27291 -3.16054,4.12505 -7.01868,7.47841 -10.28246,11.17498 -10.28246,11.64595 0,0.27272 -0.55825,1.00984 -1.24057,1.63803 -0.68233,0.62818 -1.86676,2.78377 -2.63209,4.79019 -0.76534,2.00641 -1.61142,3.64802 -1.88017,3.64802 -0.26877,0 -1.20892,1.53854 -2.08923,3.41899 -0.8803,1.88044 -2.34154,4.3347 -3.24719,5.45389 -0.90565,1.11921 -1.8391,2.90068 -2.07434,3.95884 -0.23524,1.05817 -1.50868,4.23109 -2.82989,7.05093 -1.3212,2.81983 -2.40218,5.83202 -2.40218,6.69379 0,0.86173 -0.53687,2.60341 -1.19307,3.87038 -1.25936,2.43155 -2.10571,6.68631 -2.74911,13.8202 -0.21422,2.3753 -0.68842,4.62643 -1.05376,5.00252 -0.36534,0.37609 -0.66426,2.25463 -0.66426,4.17454 0,1.9199 -0.50873,4.49151 -1.13049,5.71473 -1.22951,2.41881 -0.87191,9.00368 0.62104,11.43568 0.57312,0.93364 0.52859,2.02358 -0.17083,4.17951 -0.77163,2.3786 -0.77842,3.12207 -0.0369,4.0311 0.63375,0.77686 0.77142,2.30784 0.45438,5.05225 -0.38391,3.323 -0.18607,4.47285 1.26747,7.36627 1.81178,3.60658 3.53053,11.53916 2.87608,13.27418 -0.21169,0.5612 0.42048,1.79006 1.40479,2.7308 1.17633,1.12425 1.78967,2.4837 1.78967,3.96666 0,1.24093 0.46745,2.88497 1.03879,3.65344 0.57133,0.76844 1.04891,1.96403 1.06129,2.65683 0.0124,0.6928 0.30225,1.25963 0.64418,1.25963 0.67428,0 1.83071,2.74135 2.5366,6.01304 0.24376,1.12981 2.02077,4.17424 3.94891,6.76539 1.92812,2.59114 3.50569,5.10907 3.50569,5.59539 0,0.48633 0.43922,1.25504 0.97603,1.70827 0.53681,0.45324 1.16341,1.77726 1.39244,2.94225 0.27762,1.41221 1.30826,2.69442 3.09224,3.84709 l 2.67584,1.72891 2.83011,-1.98407 c 1.55655,-1.09124 5.1384,-4.46023 7.95965,-7.48666 z m 88.33995,-17.31433 c 0.43307,-0.60253 1.15877,-1.0955 1.61266,-1.0955 1.60595,0 5.70968,-4.5491 6.85429,-7.59819 1.24443,-3.31499 1.5826,-10.11442 0.67814,-13.63558 -0.30505,-1.18765 -1.31069,-2.84486 -2.23472,-3.68269 -0.92402,-0.83783 -1.68005,-1.81853 -1.68005,-2.17936 0,-1.99242 -7.14694,-5.67242 -13.28952,-6.84287 -4.81568,-0.91761 -10.13519,-1.24418 -11.12012,-0.6827 -0.38913,0.22184 -2.24981,0.43984 -4.13481,0.48446 -1.88503,0.0446 -3.63615,0.42316 -3.8914,0.84121 -0.25525,0.41806 -1.25709,0.87373 -2.22628,1.0126 -2.86234,0.41017 -3.74539,3.30639 -3.16589,10.38372 0.42544,5.1957 0.7951,6.46256 2.53617,8.69139 1.12099,1.43504 2.03814,3.35253 2.03814,4.26112 0,1.07522 0.54931,1.82936 1.57333,2.16002 1.70214,0.54959 7.6245,6.40188 7.6245,7.53429 0,0.38069 1.03477,0.69713 2.29947,0.70317 1.2647,0.006 2.66618,0.24899 3.11441,0.53985 0.44821,0.29086 3.47204,0.45498 6.71961,0.3647 4.32842,-0.12032 6.11486,-0.45657 6.69207,-1.25964 z M 273.0027,289.4401 c 0.71164,-0.65518 1.29389,-1.59975 1.29389,-2.09907 0,-1.03405 6.53947,-11.19846 9.08614,-14.12277 2.23275,-2.56381 3.58714,-5.29449 3.03418,-6.1175 -0.24538,-0.36524 -1.48092,-1.08986 -2.74562,-1.61026 -1.26469,-0.52041 -2.29945,-1.23082 -2.29945,-1.57867 0,-0.34786 -0.63408,-0.63246 -1.40906,-0.63246 -0.77499,0 -1.80673,-0.64781 -2.29277,-1.43958 -0.48604,-0.79177 -1.28903,-1.43958 -1.78441,-1.43958 -0.94054,0 -3.80779,-1.46533 -4.41913,-2.25842 -0.19457,-0.25241 -1.5764,-0.97688 -3.07073,-1.6099 -1.52494,-0.64597 -2.88044,-1.78677 -3.08951,-2.60015 -0.27533,-1.0711 -0.96255,-1.44921 -2.63396,-1.44921 -1.58915,0 -2.86602,-0.64197 -4.29502,-2.15936 -1.11846,-1.18766 -2.59437,-2.15936 -3.27979,-2.15936 -0.68541,0 -2.10508,-0.80977 -3.15479,-1.79948 -1.04973,-0.9897 -2.61908,-1.79947 -3.48746,-1.79947 -0.86837,0 -1.97523,-0.48585 -2.45966,-1.0797 -0.48443,-0.59382 -1.37849,-1.07967 -1.98679,-1.07967 -0.6083,0 -2.59798,-1.27987 -4.42154,-2.84415 l -3.31551,-2.84414 -2.21333,2.80194 c -1.21734,1.54107 -2.21334,3.19172 -2.21334,3.66814 0,0.84111 -0.53525,1.51557 -4.80627,6.0562 -1.11712,1.18766 -2.25673,3.07772 -2.53244,4.20015 -0.27572,1.12241 -1.24015,2.74194 -2.14317,3.59893 -0.90303,0.857 -1.86992,2.29707 -2.14865,3.20017 -0.27873,0.90308 -1.34241,2.43024 -2.3637,3.39367 -1.02133,0.96342 -1.68294,1.92872 -1.47026,2.14509 0.92387,0.93988 12.84972,0.23136 14.18942,-0.84301 1.1879,-0.95262 6.22776,-1.11256 6.22776,-0.19762 0,0.96451 1.86422,0.87421 3.50764,-0.16991 1.12293,-0.71346 1.6199,-0.63391 2.79415,0.44719 0.78556,0.72324 1.88998,1.13474 2.4543,0.91443 1.99756,-0.77981 12.8575,4.08281 13.7668,6.16422 0.12972,0.29691 0.60363,0.53984 1.05313,0.53984 1.22481,0 6.84758,6.58956 6.84758,8.02495 0,0.68604 0.26397,1.4133 0.58661,1.61617 0.32263,0.20287 1.01026,2.16541 1.52805,4.36122 1.00074,4.24385 1.60134,4.70266 3.66671,2.80113 z m 22.51965,-32.81361 c 0,-0.35398 2.78341,-4.1034 6.18536,-8.33203 3.40194,-4.22864 6.4218,-8.01234 6.71083,-8.40823 0.28901,-0.39588 1.36586,-1.78616 2.39299,-3.0895 2.13197,-2.70527 1.99822,-3.09565 -1.09124,-3.18501 -1.22125,-0.0354 -2.38216,-0.3304 -2.57977,-0.65569 -0.19763,-0.32529 -1.77376,-0.39423 -3.50254,-0.15316 -2.06317,0.28769 -3.51129,0.12752 -4.21438,-0.4661 -0.78184,-0.66011 -1.32272,-0.69198 -2.00255,-0.11799 -0.65683,0.55458 -1.70683,0.56856 -3.56192,0.0475 -1.44679,-0.4064 -3.33596,-0.49823 -4.19817,-0.20407 -3.31376,1.1306 -17.37689,1.3814 -25.86501,0.46129 -4.32251,-0.46857 -6.34497,-0.4058 -7.55823,0.23456 -0.9111,0.48086 -2.65001,1.0963 -3.86426,1.3676 -2.79294,0.62408 -2.45119,1.695 1.09444,3.42965 1.53273,0.74987 3.26435,1.67382 3.84806,2.05324 0.58371,0.37943 1.91591,1.06498 2.96044,1.52345 1.04453,0.45848 2.05281,1.43135 2.2406,2.16197 0.25357,0.98646 0.76818,1.21944 1.99918,0.90513 1.06839,-0.27282 2.17049,0.0368 3.10015,0.87099 1.54379,1.3852 2.8793,2.21029 10.48838,6.47973 2.67817,1.50271 5.99413,3.70392 7.3688,4.89158 1.37468,1.18765 3.48166,2.50575 4.68219,2.92909 1.84588,0.65092 2.42849,0.54823 3.77472,-0.66531 0.87556,-0.78927 1.59193,-1.72466 1.59193,-2.07865 z m 23.34834,-29.94399 c 0,-0.33411 1.59193,-2.29657 3.53763,-4.36107 1.9457,-2.0645 3.53763,-4.15936 3.53763,-4.65526 0,-0.49589 0.58264,-1.53785 1.29474,-2.31546 0.71212,-0.77761 1.89843,-2.37723 2.63624,-3.55473 0.73782,-1.17748 1.75017,-2.40164 2.24966,-2.72035 0.7428,-0.47396 3.01719,-4.98667 3.01719,-5.98653 0,-0.1496 -0.44351,-0.272 -0.98558,-0.272 -0.54208,0 -1.18154,-0.51946 -1.42103,-1.15436 -0.26698,-0.70782 -0.87833,-0.98146 -1.58042,-0.70737 -0.62976,0.24586 -1.52087,0.12965 -1.98027,-0.25823 -0.4594,-0.38788 -2.65495,-1.18741 -4.87899,-1.77674 -2.22404,-0.58933 -4.53836,-1.57474 -5.14294,-2.18981 -0.60459,-0.61503 -2.49808,-1.47662 -4.20778,-1.91458 -1.7097,-0.43796 -3.47554,-1.24619 -3.9241,-1.79602 -0.44856,-0.54985 -1.39455,-0.99971 -2.1022,-0.99971 -0.70767,0 -1.46113,-0.2872 -1.67438,-0.63821 -0.21323,-0.35099 -1.57442,-0.86466 -3.02485,-1.14149 -1.45043,-0.27681 -3.49301,-1.1233 -4.53908,-1.88106 -1.04604,-0.75778 -2.30915,-1.37776 -2.80687,-1.37776 -1.29203,0 -9.35948,-2.92382 -10.16164,-3.68278 -0.8722,-0.82524 -4.63429,-0.82765 -4.63429,-0.003 0,0.34816 -1.31607,2.01264 -2.92463,3.69886 l -2.92463,3.06587 1.2694,2.18619 c 1.85544,3.19542 3.34975,4.81187 4.44832,4.81187 1.21003,0 4.53862,2.50723 7.40578,5.57836 1.20119,1.28662 2.47849,2.3393 2.83846,2.3393 0.74556,0 2.61165,1.62433 8.06255,7.01796 2.10045,2.07839 4.26481,3.77889 4.8097,3.77889 0.54488,0 1.40673,0.56807 1.91521,1.2624 0.50849,0.6943 2.11631,2.0709 3.57292,3.05908 1.45661,0.9882 2.65056,2.03405 2.65322,2.32412 0.003,0.29007 0.88039,1.49858 1.95052,2.68557 1.86646,2.0703 3.71451,2.85539 3.71451,1.57801 z m -67.20831,-1.91794 c 1.67441,-1.54157 21.8757,-1.89025 23.63143,-0.40788 0.88348,0.74594 1.3896,0.79296 1.98754,0.18467 0.59791,-0.6083 1.05252,-0.60477 1.78521,0.0138 0.75626,0.63852 1.47014,0.53725 3.09459,-0.43897 1.7163,-1.03141 3.29211,-1.21267 8.41791,-0.96822 6.9042,0.32926 8.63353,-0.10917 6.71453,-1.70231 -0.65835,-0.54657 -1.9199,-1.72254 -2.80341,-2.61328 -0.88355,-0.89075 -1.82997,-1.61953 -2.10317,-1.61953 -0.27322,0 -1.66944,-1.13086 -3.10274,-2.51303 -1.43331,-1.38215 -2.84478,-2.51582 -3.13663,-2.51925 -0.29185,-0.004 -0.53065,-0.48776 -0.53065,-1.07628 0,-0.5885 -1.07274,-1.52601 -2.38387,-2.08332 -1.31114,-0.55733 -2.82346,-1.61576 -3.36075,-2.35209 -0.53728,-0.73633 -2.33002,-2.23271 -3.98386,-3.3253 -1.65384,-1.09258 -3.00698,-2.27117 -3.00698,-2.61908 0,-0.34791 -0.5117,-0.83233 -1.1371,-1.07647 -1.30118,-0.50794 -10.89084,8.89282 -10.89084,10.67633 0,0.58227 -0.53503,1.3633 -1.18898,1.7356 -0.65394,0.3723 -3.68519,3.22202 -6.73613,6.33269 -4.97403,5.07142 -5.42202,5.74886 -4.336,6.55673 1.52802,1.13667 1.64202,1.1298 3.0699,-0.18482 z m 90.83257,-33.21704 c 1.21023,-1.44765 3.23519,-3.67225 4.4999,-4.94355 1.26468,-1.27131 2.29946,-2.5093 2.29946,-2.75112 0,-0.24181 1.76828,-2.21008 3.92952,-4.37393 4.90784,-4.91377 5.78431,-8.11134 2.80101,-10.21872 -3.02544,-2.13714 -6.48125,-5.53317 -7.324,-7.19728 -0.42496,-0.83914 -1.85416,-2.04782 -3.17599,-2.68594 -1.32185,-0.63812 -2.79367,-1.63867 -3.27073,-2.22346 -0.75191,-0.92171 -1.10789,-0.83637 -2.67416,0.64113 -1.06949,1.00887 -1.63819,2.15136 -1.39364,2.79971 0.46408,1.23032 -4.93506,11.32931 -7.60395,14.22307 -0.94937,1.02937 -1.93788,2.72987 -2.19669,3.7789 -0.2588,1.04903 -0.70923,1.90732 -1.00093,1.90732 -0.29171,0 -1.34374,1.59492 -2.33788,3.54426 -2.14688,4.20975 -1.84263,4.68168 4.43671,6.88193 2.14026,0.74994 4.68735,1.78594 5.6602,2.30222 3.01913,1.60224 4.97888,1.15316 7.35117,-1.68454 z m -26.87775,-10.0918 c 0.96605,-1.0599 1.96581,-3.18782 2.22172,-4.72874 0.2559,-1.54092 0.86565,-2.95796 1.35498,-3.149 0.48936,-0.19103 1.311,-1.64591 1.82587,-3.23305 0.51489,-1.58715 1.47847,-3.181 2.1413,-3.54189 0.66283,-0.36089 1.42074,-1.82524 1.68424,-3.25411 0.26349,-1.42887 1.57408,-4.14855 2.91243,-6.04373 1.33836,-1.89518 2.43337,-3.95783 2.43337,-4.58368 0,-0.62584 0.55054,-1.45134 1.22344,-1.83444 1.13188,-0.6444 1.13734,-0.79523 0.073,-2.01518 -0.63272,-0.72524 -1.26612,-1.96645 -1.40756,-2.75822 -0.15946,-0.89274 -0.92629,-1.53286 -2.01874,-1.68514 -0.96886,-0.13508 -2.23916,-0.66088 -2.82287,-1.16847 -0.5837,-0.50759 -2.24609,-1.1388 -3.69418,-1.40269 -1.44808,-0.26389 -3.04002,-1.05352 -3.53762,-1.75474 -0.49761,-0.70123 -1.26773,-1.49517 -1.71137,-1.76432 -0.91556,-0.55546 -5.20733,3.5925 -5.20733,5.03285 0,0.51868 -0.31388,0.94303 -0.69749,0.94303 -0.38363,0 -1.57077,1.37661 -2.63811,3.05911 -1.06734,1.6825 -2.61384,3.72533 -3.43667,4.5396 -0.82282,0.81429 -1.6966,2.29342 -1.94172,3.28698 -0.24512,0.99357 -1.24495,2.24164 -2.22186,2.77353 -0.97689,0.53189 -1.98632,1.64398 -2.24315,2.47134 -0.25685,0.82735 -1.01601,1.89753 -1.68704,2.37819 -0.67102,0.48065 -1.39922,1.77627 -1.61824,2.87915 -0.21902,1.10289 -1.55597,3.37769 -2.97098,5.05511 -2.60826,3.09196 -2.73395,4.50791 -0.40012,4.50791 1.68283,0 6.18688,1.92564 6.77731,2.89754 0.25393,0.41799 1.09875,0.55426 1.87738,0.30286 0.91053,-0.294 1.96229,0.0482 2.94746,0.95863 0.84244,0.77866 2.48688,1.6224 3.65431,1.87498 4.71169,1.01941 5.6415,1.26483 5.93906,1.56755 0.65835,0.66977 1.49604,0.24663 3.18913,-1.61096 z"
       id="path1193"
       inkscape:label="Ring" /></g></svg>
